<svg id="图层_1" data-name="图层 1" xmlns="http://www.w3.org/2000/svg" viewBox="0 0 248.52 103.18"><defs><style>.cls-1{fill:#f2965e;}.cls-2,.cls-3{fill:#231815;}.cls-3{stroke:#231815;stroke-miterlimit:10;}</style></defs><title>logo</title><polygon class="cls-1" points="102.63 49.14 102.63 78.62 94.12 83.53 94.12 73.71 85.61 78.62 77.1 83.53 68.59 88.45 68.59 98.27 60.08 103.18 60.08 73.7 68.59 68.79 68.59 78.62 77.09 73.71 77.1 73.71 77.1 73.7 85.61 68.79 94.12 63.88 94.12 54.05 102.63 49.14"/><polygon class="cls-2" points="68.58 9.83 60.08 14.74 51.56 9.83 43.05 14.74 34.53 19.66 26.02 24.57 17.52 29.48 17.52 29.49 9.01 34.4 0.49 29.49 0.49 29.48 17.52 19.66 26.02 14.75 26.02 14.74 34.53 9.83 43.05 4.92 43.05 4.91 51.56 0 60.08 4.91 60.08 4.92 68.58 9.83"/><polygon class="cls-1" points="77.1 24.57 68.59 29.48 68.59 29.49 68.58 29.49 60.08 34.4 51.57 39.31 43.05 44.23 34.54 49.14 26.04 54.05 26.03 54.05 17.52 49.14 9.01 44.23 0.5 39.31 0.5 29.49 9.01 34.4 17.52 39.31 26.03 44.22 26.03 44.23 34.54 39.32 34.54 39.31 43.05 34.4 51.57 29.49 51.57 29.48 60.07 24.57 60.08 24.57 68.59 19.66 77.1 24.57"/><polygon class="cls-2" points="102.63 29.48 102.63 39.31 94.12 44.23 85.61 49.14 77.1 54.05 68.59 58.96 68.59 58.97 68.58 58.97 60.08 63.88 51.57 68.79 43.05 63.88 34.54 58.97 43.05 54.06 43.05 54.05 43.06 54.05 51.56 58.97 51.57 58.97 51.57 58.96 60.08 54.05 68.59 49.14 77.09 44.23 77.1 44.23 77.1 44.22 85.61 39.31 94.12 34.4 85.61 29.49 85.61 29.48 77.1 24.57 68.59 19.66 77.1 14.75 77.1 14.74 85.61 19.65 85.61 19.66 102.63 29.48"/><polygon class="cls-3" points="51.57 78.62 51.57 88.45 43.05 83.53 34.54 78.62 26.04 73.71 26.03 73.71 26.03 93.36 17.53 88.45 17.52 88.45 17.52 68.79 9.01 63.88 0.5 58.97 0.5 49.14 9.01 54.05 17.52 58.96 17.52 58.97 17.53 58.97 26.03 63.88 34.54 68.79 43.05 73.7 43.05 73.71 43.06 73.71 51.57 78.62"/><path class="cls-2" d="M295.54,159.7a38.42,38.42,0,0,1-9.13,12.06,1.14,1.14,0,0,0,.39,1.92A73.41,73.41,0,0,0,300,177.21a1.15,1.15,0,0,1,.7,1.85,37.88,37.88,0,0,0-3.22,4.83,1.15,1.15,0,0,1-1.23.55,64.57,64.57,0,0,1-17.88-6.26,1.12,1.12,0,0,0-1.08,0,75.8,75.8,0,0,1-16.05,6.38,1.14,1.14,0,0,1-1.31-.58,36.32,36.32,0,0,0-2.93-4.55,1.13,1.13,0,0,1,.63-1.8,61.79,61.79,0,0,0,11.3-3.81,1.15,1.15,0,0,0,.31-1.89c-1.07-.95-2.07-1.94-3.06-3a1.15,1.15,0,0,0-1.71.05,48.77,48.77,0,0,1-10.94,9.33,1.13,1.13,0,0,1-1.55-.34,46.11,46.11,0,0,0-2.84-3.8,1.14,1.14,0,0,0-2,.44,50.07,50.07,0,0,1-2.91,8.64,1.13,1.13,0,0,1-1.74.4,31.68,31.68,0,0,0-5.29-3.37,1.14,1.14,0,0,1-.51-1.52c4.75-10.18,5.15-24.63,5.15-34.64V125.76a1.15,1.15,0,0,1,1.14-1.15h23.8a1.15,1.15,0,0,0,1.08-1.54l-.68-1.87a1.14,1.14,0,0,1,.88-1.52l6.63-1.15a1.13,1.13,0,0,1,1.24.68c.66,1.51,1.37,3.15,2,4.7a1.13,1.13,0,0,0,1.05.7h21.2a1.14,1.14,0,0,1,1.14,1.15v5.62a1.14,1.14,0,0,1-1.14,1.14H251.42a1.15,1.15,0,0,0-1.14,1.15v10.47a143.46,143.46,0,0,1-2,25.1,1.15,1.15,0,0,0,1.75,1.17,41.65,41.65,0,0,0,15.23-17.1,1.15,1.15,0,0,0-1-1.67h-1.82a28.87,28.87,0,0,0-6.63.58,1.14,1.14,0,0,1-1.37-.76,53.25,53.25,0,0,0-1.92-5.12,1.12,1.12,0,0,1,.32-1.35,5.51,5.51,0,0,0,1.55-1.9,38.05,38.05,0,0,0,2.77-8.27,1.14,1.14,0,0,1,1.25-.91l6.21.71a1.15,1.15,0,0,1,1,1.41,42.9,42.9,0,0,1-2.16,6.61,1.14,1.14,0,0,0,1.06,1.57H268a1.14,1.14,0,0,0,1.1-.81,91.43,91.43,0,0,0,2.15-9.29,1.15,1.15,0,0,1,1.3-.93l5.84.91a1.17,1.17,0,0,1,1,1.36c-.5,2.5-1.1,5-1.75,7.31a1.14,1.14,0,0,0,1.1,1.45h8.25a.59.59,0,0,0,.46-1c-1.26-1.56-2.79-3.31-4.16-4.88a1.13,1.13,0,0,1,.26-1.71l4-2.53a1.14,1.14,0,0,1,1.42.18c1.87,1.89,4.13,4.31,5.68,6.13a1.14,1.14,0,0,1-.23,1.69l-2.15,1.46a.34.34,0,0,0,.19.63h6.34a1.15,1.15,0,0,1,1.14,1.15v5.13a1.15,1.15,0,0,1-1.14,1.15H275.5a1.13,1.13,0,0,0-1.07.74c-.27.7-.56,1.38-.86,2.05a1.15,1.15,0,0,0,1,1.62h14.11a1.09,1.09,0,0,0,.26,0l.92-.21a1.11,1.11,0,0,1,.8.1l4.33,2.3A1.15,1.15,0,0,1,295.54,159.7Zm-23,5.53a35.11,35.11,0,0,0,4.09,3.24,1.16,1.16,0,0,0,1.35,0,37,37,0,0,0,3.73-3.23,1.15,1.15,0,0,0-.83-1.94h-7.54A1.15,1.15,0,0,0,272.59,165.23Z" transform="translate(-123.18 -102.08)"/><path class="cls-2" d="M333.1,157.44c-1.92.56-3.81,1.19-5.78,1.79a1.15,1.15,0,0,0-.81,1.09v22.93a1.15,1.15,0,0,1-1.15,1.15H320a1.14,1.14,0,0,1-1.14-1.15V163.32a1.15,1.15,0,0,0-1.48-1.09c-2.8.84-5.43,1.66-7.91,2.34a1.14,1.14,0,0,1-1.4-.83l-1.45-5.64a1.14,1.14,0,0,1,.85-1.4c3.05-.71,6.62-1.64,10.54-2.73a1.16,1.16,0,0,0,.85-1.11V141.51a1.16,1.16,0,0,0-1.15-1.15H315.1a1.15,1.15,0,0,0-1.12.9,67.18,67.18,0,0,1-1.85,6.6,1.14,1.14,0,0,1-1.73.57c-1.18-.81-2.71-1.77-3.87-2.47a1.14,1.14,0,0,1-.48-1.37c1.85-5.26,2.94-13,3.56-20.41a1.15,1.15,0,0,1,1.33-1l4.63.8a1.16,1.16,0,0,1,1,1.26c-.22,2-.47,4-.75,5.94a1.14,1.14,0,0,0,1.13,1.31h.82a1.15,1.15,0,0,0,1.15-1.14V120.16A1.14,1.14,0,0,1,320,119h5.34a1.15,1.15,0,0,1,1.15,1.15v11.15a1.14,1.14,0,0,0,1.14,1.14h3.52a1.15,1.15,0,0,1,1.15,1.15v5.62a1.14,1.14,0,0,1-1.15,1.14h-3.52a1.15,1.15,0,0,0-1.14,1.15v8.61a1.14,1.14,0,0,0,1.46,1.1l3.73-1.05a1.14,1.14,0,0,1,1.44.93l.78,5.07A1.15,1.15,0,0,1,333.1,157.44Zm37.45-27.65A1.15,1.15,0,0,1,371.7,131c0,.89-.07,2-.11,2.6-1.33,31.23-2.59,42.64-5.25,46.14a7.67,7.67,0,0,1-5.46,3.64,36.79,36.79,0,0,1-6.93.25,1.14,1.14,0,0,1-1.09-1,24.86,24.86,0,0,0-1.41-5.48,1.14,1.14,0,0,1,1.14-1.55c1.78.12,3.31.12,4.3.12a2.92,2.92,0,0,0,2.59-1.33c1.75-2.24,3-11.76,4.13-36.9h-.35c-3.35,17.23-10.31,35-21.13,44.49a1.13,1.13,0,0,1-1.5,0,32.79,32.79,0,0,0-4.59-3.32,1.14,1.14,0,0,1-.13-1.86c10.11-8.08,16.6-22.68,20-37.9a1.15,1.15,0,0,0-1.12-1.4h-1a1.13,1.13,0,0,0-1.1.84c-3,10.75-8.46,22.34-15,29a1.13,1.13,0,0,1-1.57,0,31.58,31.58,0,0,0-4.23-3.14,1.13,1.13,0,0,1-.16-1.8c6-5.37,10.84-14.41,13.8-23.47a1.15,1.15,0,0,0-1.1-1.5h-1.25a1.16,1.16,0,0,0-1.05.7A53.45,53.45,0,0,1,336,149.06a1.14,1.14,0,0,1-1.64.17c-1.22-1-3-2.28-4.34-3.19a1.15,1.15,0,0,1-.22-1.7c4.88-5.92,8.36-14.94,10.39-24.31a1.14,1.14,0,0,1,1.32-.89l5.29,1a1.16,1.16,0,0,1,.92,1.39c-.54,2.3-1.18,4.57-1.87,6.8a1.14,1.14,0,0,0,1.1,1.48Z" transform="translate(-123.18 -102.08)"/></svg>